<svg id="Layer_1" data-name="Layer 1" xmlns="http://www.w3.org/2000/svg" xmlns:xlink="http://www.w3.org/1999/xlink" viewBox="0 0 500 500"><defs><style>.cls-1{fill:#efefef;}.cls-2{fill:url(#linear-gradient);}.cls-3{fill:url(#linear-gradient-2);}.cls-4{fill:url(#linear-gradient-3);}.cls-5{fill:url(#linear-gradient-4);}.cls-6{fill:url(#linear-gradient-5);}.cls-7{fill:url(#linear-gradient-6);}.cls-8{fill:url(#linear-gradient-7);}</style><linearGradient id="linear-gradient" x1="125" y1="213.52" x2="269.25" y2="360.83" gradientUnits="userSpaceOnUse"><stop offset="0" stop-color="#01064b"/><stop offset="0.52" stop-color="#4e95ed"/><stop offset="1" stop-color="#132b94"/></linearGradient><linearGradient id="linear-gradient-2" x1="161.82" y1="177.47" x2="306.06" y2="324.78" xlink:href="#linear-gradient"/><linearGradient id="linear-gradient-3" x1="182.45" y1="157.27" x2="326.7" y2="304.58" xlink:href="#linear-gradient"/><linearGradient id="linear-gradient-4" x1="224.51" y1="116.09" x2="368.75" y2="263.4" xlink:href="#linear-gradient"/><linearGradient id="linear-gradient-5" x1="110.18" y1="228.03" x2="254.42" y2="375.34" xlink:href="#linear-gradient"/><linearGradient id="linear-gradient-6" x1="194.26" y1="145.7" x2="338.5" y2="293.02" xlink:href="#linear-gradient"/><linearGradient id="linear-gradient-7" x1="152.21" y1="186.88" x2="296.45" y2="334.19" xlink:href="#linear-gradient"/></defs><circle class="cls-1" cx="307" cy="313" r="157"/><path class="cls-2" d="M111.36,308.59c-.64,4.58-1.29,9.16-2,14H94.07c0-3.51,0-6.94,0-10.36.16-16.18.3-32.37.54-48.55.17-12.29,5.54-21.73,16-28.17,4.43-2.72,8.94-5.3,13.71-8.12l3.06,5c-4.24,2.53-8.32,5-12.47,7.42-9.74,5.56-14.5,13.89-14.55,25.11-.06,16.19-.32,32.37-.48,48.55,0,1,.09,1.95.15,3.26l4.18.31c2-15.08,4-30,6-45.07h5.86c2.18,41.68,4.36,83.25,6.54,125h10.73c1.83-22.34,3.65-44.48,5.5-66.91l-4.5-.49v-5.39h15.22v5.26l-4.25.68c.52,6.77,1,13.55,1.57,20.32,1.16,14.26,2.43,28.52,3.46,42.79.21,2.91.89,4.17,4.09,4,8.42-.35,6.95,1.12,7.38-7.08q3-58,6-116c0-.61.13-1.22.24-2.24l5.69-.27L176,287.54l.88,0c0-7.19-.27-14.38.09-21.55.25-4.79,1.47-9.52,2.1-14.31.15-1.19.13-2.9-.57-3.64a55.25,55.25,0,0,0-8.23-7.45c-4.17-2.9-8.7-5.29-13.47-8.14.95-1.69,1.82-3.24,3.09-5.48l23.38,15.63,23.17-15.64,3.27,5.44c-4.72,2.81-9.21,5.44-13.66,8.15-7.75,4.7-12.78,11.53-13,20.59-.43,18.4-.13,36.82-.13,55.53,2.44.95,3.82.31,4.22-3,1.67-13.82,3.56-27.62,5.4-41.69h5.88C200.64,313.5,202.8,355,205,396.77h10.74q2.72-33.13,5.49-66.76l-4.53-.57v-5.33h15.45v5.27l-4.48.62c1.81,22.23,3.63,44.48,5.42,66.47a5.3,5.3,0,0,0,1.11.52c9.39,1,9.57,1,10.09-8.39,1.46-26.22,2.76-52.45,4.12-78.68.66-12.54,1.32-25.09,2-37.95h5.87q1.92,14.47,3.85,29.08c.56,4.19,1.24,8.38,1.57,12.59.24,3.08,1.57,3.9,4.58,2.91.08-1,.23-2.13.22-3.21-.12-16.43-.2-32.86-.41-49.3-.13-10.4-4.64-18.39-13.64-23.75l-13.31-7.93,3.21-5.39,23.34,15.6,23.2-15.67,3.22,5.46c-3.73,2.23-7.26,4.27-10.72,6.43a65.85,65.85,0,0,0-7.1,4.79c-3.57,2.93-5.32,5.87-3.88,11.39,1.81,7,1.29,14.53,1.63,21.84.17,3.56,0,7.13.81,10.72q1.1-7.84,2.21-15.7h5.73c.31,5,.65,9.79.9,14.61,1.83,35.55,3.7,71.1,5.39,106.66.16,3.33,1.2,4.17,4.38,4.07,6.65-.2,6.62,0,7.17-6.67q2.37-28.83,4.79-57.67c.07-.84,0-1.7,0-2.8l-4.19-.64v-5.31h15.19v5.27L310,330c1.82,22.19,3.64,44.43,5.47,66.87h10.74c2.18-41.63,4.35-83.11,6.53-124.91h5.87l5.89,44.49c3.24,1.08,4.55.45,4.48-3.06-.31-16.55-.37-33.11-.6-49.67-.14-10-4.44-17.7-12.92-23-4.53-2.83-9.17-5.5-14-8.38l2.7-4.57c17.95,8.74,30.55,16.19,30.15,39.22-.18,10.71.15,21.41.21,32.12,0,7.7,0,15.4,0,23.4H339.5c-.67-4.58-1.34-9.26-2-13.94l-.78.07c-1.63,31.24-3.26,62.48-4.9,94H310.14q-1.47-17.49-2.95-35l-.76,0c-1,11.59-2,23.19-3,35.05H281.83q-2.47-47.13-4.95-94.13h-.75c-.65,4.63-1.31,9.26-2,14.26-5.28,0-10.36.1-15.43-.11-.7,0-1.75-1.53-1.91-2.47-.71-4-1.15-8-2.41-12.06-1.64,31.45-3.29,62.89-4.94,94.55H227.75c-1-11.61-1.91-23.08-2.86-34.55l-.89,0c-1,11.47-1.93,22.95-2.93,34.81-6.81,0-13.38.08-19.93-.13-.66,0-1.76-1.8-1.82-2.82-.66-10.68-1.15-21.38-1.7-32.07-1-19.88-2.07-39.76-3.79-59.73-.52,3.64-1.23,7.27-1.48,10.93-.19,2.78-1,4-4,3.8-4.45-.26-8.91-.07-13.57-.07-.71-5-1.37-9.67-2-14.3l-.74,0q-2.47,47-5,94.21H145.41c-1-11.78-2-23.46-3-35.14l-.75,0c-1,11.68-2,23.35-3,35.14H117.07q-2.46-47.19-4.92-94.12Z"/><path class="cls-3" d="M151.14,64.34v5.41h39.31v6H151.16v7h39.29v5.92H151.18V96h39.21v5.8H151.23v7.33h39.28v5.63c-1.32.07-2.63.2-3.94.2q-14.76,0-29.51,0c-6.78,0-6.78,0-5.71,7.3h39.12v5.9H151.14v7.09h39.34v5.84H151.13v7.31h39.31v5.9H151c0,7-.12,13.56.13,20.11,0,1,1.73,2.13,2.89,2.79,9.39,5.39,14.24,13.41,13.73,24.26-.5,10.54-5.84,18.19-15.49,22.31-10.26,4.39-19.81,2.49-28-5A25.25,25.25,0,0,1,118,190.94c4.13-10.14,11.8-15.72,22.82-16.51,1.12-.08,2.23-.09,3.35-.15a4.12,4.12,0,0,0,.65-.27v-13.6H79.54V344.78H73.79V154.5H145V58.42h98.32v95.64h30.92V102.49h66v4.24c0,17.43.09,34.86-.08,52.29,0,3.37,1,4.2,4.21,4.14,10.07-.19,20.15-.07,30.53-.07V344.75c-.93.09-1.77.24-2.61.24s-1.68-.14-2.87-.25v-95h-17.1V244h16.75v-8.8H352.4V229.3h16.74v-8.57H352.33v-5.89h16.74v-8.66H352.39v-5.9h16.76V168.93H334.4V154.37H323.28v-5.81H334.1v-7.3H323.3v-5.95h10.93V128.2h-11v-5.82h10.81v-14H280.27v51.81H243.86v7.07h55.83V173h-62V64.34Zm-9.07,115.9A19.94,19.94,0,1,0,162,200.17,20,20,0,0,0,142.07,180.24Z"/><path class="cls-4" d="M224.46,225.94A25.78,25.78,0,1,1,250.28,200,25.85,25.85,0,0,1,224.46,225.94Zm-.16-45.69a20,20,0,0,0-19.87,20,20,20,0,0,0,40-.26A20,20,0,0,0,224.3,180.25Z"/><path class="cls-5" d="M281.06,200.33a25.77,25.77,0,1,1,26,25.62A25.54,25.54,0,0,1,281.06,200.33Zm25.65-20.09a19.94,19.94,0,0,0,.2,39.87,19.94,19.94,0,1,0-.2-39.87Z"/><path class="cls-6" d="M136.62,236.09H147.4l2.2,23.32a18.37,18.37,0,0,0,.27,3.34c3,10.66-1.13,19.26-8.12,27.48-2.77-4.7-5.58-9.4-8.32-14.15a3.26,3.26,0,0,1-.19-1.82C134.34,261.67,135.46,249.07,136.62,236.09Zm5.86,9.83-.84,0c-.81,8.76-1.79,17.51-2.3,26.29-.12,2.12,1.31,4.33,2,6.5l1.2-.16c.8-1.62,2.38-3.3,2.28-4.87C144.27,264.38,143.31,255.15,142.48,245.92Z"/><path class="cls-7" d="M306.74,290.55c-2.95-4.92-5.76-9.56-8.49-14.25a3.79,3.79,0,0,1-.34-2.14c1.14-12.6,2.33-25.19,3.52-38h10.76c.83,8.94,1,17.93,2.66,26.64,1.8,9.55-.54,17.5-6.22,24.9C308,288.48,307.54,289.34,306.74,290.55Zm-.93-11.88,1.56-.05c.77-1.87,2.3-3.78,2.19-5.59-.55-9.07-1.52-18.12-2.34-27.17a8.41,8.41,0,0,0-1.24,3.9c-.65,7.17-1.44,14.34-1.76,21.52C304.11,273.72,305.25,276.21,305.81,278.67Z"/><path class="cls-8" d="M229.77,236.09c.63,6.49,1.27,12.89,1.88,19.29.31,3.35.09,6.83,1,10,2.77,10.13-3.07,17.19-8.34,25.1-2.94-4.95-5.75-9.59-8.43-14.3a4.65,4.65,0,0,1-.25-2.54q1.59-17.82,3.24-35.65a10.71,10.71,0,0,1,.53-1.91ZM225,279.16c.87-2.77,2.2-5,2.17-7.29-.08-5.19-.81-10.37-1.29-15.55-.32-3.34-.68-6.67-1-10a5.05,5.05,0,0,0-1.19,3.15c-.6,6.79-1,13.61-1.85,20.37C221.35,273.18,221.81,275.92,225,279.16Z"/></svg>