<svg id="Layer_1" data-name="Layer 1" xmlns="http://www.w3.org/2000/svg" xmlns:xlink="http://www.w3.org/1999/xlink" viewBox="0 0 500 500"><defs><style>.cls-1{fill:#efefef;}.cls-2{fill:url(#linear-gradient);}.cls-3{fill:url(#linear-gradient-2);}.cls-4{fill:url(#linear-gradient-3);}.cls-5{fill:url(#linear-gradient-4);}.cls-6{fill:url(#linear-gradient-5);}.cls-7{fill:url(#linear-gradient-6);}.cls-8{fill:url(#linear-gradient-7);}.cls-9{fill:url(#linear-gradient-8);}.cls-10{fill:url(#linear-gradient-9);}.cls-11{fill:url(#linear-gradient-10);}.cls-12{fill:url(#linear-gradient-11);}.cls-13{fill:url(#linear-gradient-12);}.cls-14{fill:url(#linear-gradient-13);}.cls-15{fill:url(#linear-gradient-14);}.cls-16{fill:url(#linear-gradient-15);}</style><linearGradient id="linear-gradient" x1="123.05" y1="154.28" x2="267.03" y2="269.87" gradientUnits="userSpaceOnUse"><stop offset="0" stop-color="#01064b"/><stop offset="0.52" stop-color="#4e95ed"/><stop offset="1" stop-color="#132b94"/></linearGradient><linearGradient id="linear-gradient-2" x1="84.94" y1="201.75" x2="228.92" y2="317.34" xlink:href="#linear-gradient"/><linearGradient id="linear-gradient-3" x1="100.94" y1="181.82" x2="244.93" y2="297.41" xlink:href="#linear-gradient"/><linearGradient id="linear-gradient-4" x1="63.95" y1="227.9" x2="207.93" y2="343.49" xlink:href="#linear-gradient"/><linearGradient id="linear-gradient-5" x1="95.98" y1="188" x2="239.96" y2="303.59" xlink:href="#linear-gradient"/><linearGradient id="linear-gradient-6" x1="79.94" y1="207.98" x2="223.92" y2="323.58" xlink:href="#linear-gradient"/><linearGradient id="linear-gradient-7" x1="42.98" y1="254.01" x2="186.97" y2="369.6" xlink:href="#linear-gradient"/><linearGradient id="linear-gradient-8" x1="58.97" y1="234.07" x2="202.95" y2="349.66" xlink:href="#linear-gradient"/><linearGradient id="linear-gradient-9" x1="75" y1="214.14" x2="218.98" y2="329.73" xlink:href="#linear-gradient"/><linearGradient id="linear-gradient-10" x1="86.71" y1="199.55" x2="230.69" y2="315.14" xlink:href="#linear-gradient"/><linearGradient id="linear-gradient-11" x1="168.92" y1="97.14" x2="312.9" y2="212.73" xlink:href="#linear-gradient"/><linearGradient id="linear-gradient-12" x1="190.95" y1="69.71" x2="334.93" y2="185.3" xlink:href="#linear-gradient"/><linearGradient id="linear-gradient-13" x1="225.37" y1="26.83" x2="369.35" y2="142.42" xlink:href="#linear-gradient"/><linearGradient id="linear-gradient-14" x1="136.21" y1="137.89" x2="280.19" y2="253.49" xlink:href="#linear-gradient"/><linearGradient id="linear-gradient-15" x1="125.34" y1="151.43" x2="269.32" y2="267.02" xlink:href="#linear-gradient"/></defs><circle class="cls-1" cx="307" cy="313" r="157"/><path class="cls-2" d="M362.32,353H327.5v47.66h-6.78V386H244.9v14.73h-6.72V379.94H75V373.3H237.91v-6.78H71.74v-134h6.48v127H237.9V259l-12.27-1.6v21.29h6.28v6.67H218.83c0-.72-.11-1.47-.11-2.23,0-9.16,0-18.33,0-27.5a3.43,3.43,0,0,0-1.4-2.83c-3.1-2.82-6.08-5.8-8.91-8.9a3.42,3.42,0,0,0-2.84-1.35c-8.46,0-16.91,0-25.36,0H178V207.4h2.31c8.38,0,16.76,0,25.14,0A3,3,0,0,0,208.3,206a33.75,33.75,0,0,1,61.42,13.88,32.64,32.64,0,0,1-7.63,26.82,3.16,3.16,0,0,0-.77,3.42,12.71,12.71,0,0,1,.42,3.81c0,9.53,0,19,0,28.58,0,.49,0,1,.06,1.32h9.94V188.13H78.31v30H71.68V146.27H97.87v-11.6h6.74V146h30.16V134.67h6.67V146h8.93V82.14h212ZM252.26,146.21h26.38V290.59c7.2-1.63,13.07-.47,16.34,6.7a15.4,15.4,0,0,1,9.86-.35,11,11,0,0,1,7,6.8c4.77-1.76,9-1.16,12.49,2.32s3.39,8.05,3,12.51h-6.63c0-1.54,0-2.89,0-4.24-.05-2.92-1.61-4.74-4.1-4.77s-4.18,1.79-4.21,4.84c0,2.56,0,5.12,0,7.82h-6.78c0-4.73,0-9.37,0-14,0-3.59-1.53-5.09-5.1-5.08s-5,1.51-5.05,5.14c0,2.49,0,5,0,7.53h-6.67c0-4.62,0-9.05,0-13.49,0-4-1.41-5.56-5.07-5.57s-5.12,1.49-5.13,5.48c0,2.4,0,4.8,0,7.23h-6.65c0-.88-.1-1.65-.1-2.42,0-3.87,0-7.73,0-11.6s-1.49-5.15-5.26-5.11c-3.26,0-4.83,1.71-4.82,5.17V303h-6.62v-8.49h3.33c-3.4-.37-3.44.54-3.44-3.73q0-16,0-32c0-2,.09-4,0-6a4.89,4.89,0,0,0-4.22-4.71,4.7,4.7,0,0,0-5.32,3,9.86,9.86,0,0,0-.56,3.55q0,61,0,122c0,.75.07,1.51.11,2.23h75.75V331.29h6.78v14.76h28.22V88.88H157.43V146h14.35V134.68h6.66V146h30.15V134.69h6.73V146h30.13v-11.3h6.81ZM78.4,181.05H271.69V153H252.36l-.25,2.51h-6.53c-.1-.94-.19-1.7-.27-2.48H215.44l-.25,2.52h-6.48l-.3-2.54H178.57l-.35,2.57h-6.34L171.5,153H141.66l-.32,2.53H135l-.38-2.62H104.88l-.41,2.55H98.06L97.82,153H78.4Zm178,62c.53-.63,1-1.16,1.44-1.72a27.07,27.07,0,0,0-30.13-42.07c-12.31,4.1-20.24,16.9-18.22,29.44,2.16,13.47,13.25,23.25,26.46,23.33,1,0,2,.28,2.49-1.26C241.18,242.05,248.06,239.07,256.4,243Zm-71.59-28.75v21.38h19.4a34.63,34.63,0,0,1-.05-21.38Z"/><path class="cls-3" d="M96.43,207.46h34.86v35H96.43Zm6.7,28.23h21.45V214.32H103.13Z"/><path class="cls-4" d="M137.26,207.46h34.86v35H137.26Zm6.72,6.82v21.38h21.4V214.28Z"/><path class="cls-5" d="M131.33,285.43H96.4V250.5h34.93Zm-6.73-28.24H103.19v21.44H124.6Z"/><path class="cls-6" d="M213.05,250.48v34.9H178v-34.9Zm-28.22,6.63v21.53h21.35V257.11Z"/><path class="cls-7" d="M137.15,285.42V250.51h35v34.91ZM144,257.16v21.49h21.37V257.16Z"/><path class="cls-8" d="M131.33,328.37H96.4V293.46h34.93Zm-6.72-28.26H103.19v21.47h21.42Z"/><path class="cls-9" d="M172.16,328.37H137.22V293.45h34.94Zm-28.22-6.8h21.48V300.13H143.94Z"/><path class="cls-10" d="M213,328.36H178v-35h35Zm-28.19-28.28v21.47h21.44V300.08Z"/><path class="cls-11" d="M225.6,321.72h6.31v6.61H218.82V293.42H232v6.47H225.6Z"/><path class="cls-12" d="M288.76,214.25v-6.77h53.52V149.59h6.6V285.42H288.81v-6.59h53.37V214.25Z"/><path class="cls-13" d="M176,113.08v-6.51H305.87v6.51Z"/><path class="cls-14" d="M340.49,109.7a11.75,11.75,0,1,1-11.81-11.61A11.62,11.62,0,0,1,340.49,109.7Zm-11.79,5.2a5.07,5.07,0,1,0-5-5.12A5.17,5.17,0,0,0,328.7,114.9Z"/><path class="cls-15" d="M239.55,228.22h-6.49V208.28h6.49Z"/><path class="cls-16" d="M239.59,239.42v2.24h-6.53l-.13-2.24Z"/></svg>