<svg id="Layer_1" data-name="Layer 1" xmlns="http://www.w3.org/2000/svg" xmlns:xlink="http://www.w3.org/1999/xlink" viewBox="0 0 500 500"><defs><style>.cls-1{fill:#efefef;}.cls-2{fill:url(#linear-gradient);}.cls-3{fill:url(#linear-gradient-2);}.cls-4{fill:url(#linear-gradient-3);}.cls-5{fill:url(#linear-gradient-4);}.cls-6{fill:url(#linear-gradient-5);}</style><linearGradient id="linear-gradient" x1="198.04" y1="125.8" x2="356.22" y2="332.65" gradientUnits="userSpaceOnUse"><stop offset="0" stop-color="#01064b"/><stop offset="0.52" stop-color="#4e95ed"/><stop offset="1" stop-color="#132b94"/></linearGradient><linearGradient id="linear-gradient-2" x1="75.4" y1="219.59" x2="233.58" y2="426.43" xlink:href="#linear-gradient"/><linearGradient id="linear-gradient-3" x1="174.63" y1="143.71" x2="332.8" y2="350.55" xlink:href="#linear-gradient"/><linearGradient id="linear-gradient-4" x1="174.63" y1="143.7" x2="332.81" y2="350.55" xlink:href="#linear-gradient"/><linearGradient id="linear-gradient-5" x1="171.79" y1="145.87" x2="329.97" y2="352.72" xlink:href="#linear-gradient"/></defs><circle class="cls-1" cx="307" cy="313" r="157"/><path class="cls-2" d="M342.85,396.47V384.2h-5.6c-16.07,0-32.13,0-48.19-.12-1.66,0-3.73-.14-4.86-1.1a6.11,6.11,0,0,1-2-4.65c.19-1.49,1.73-3.06,3.08-4.06.89-.67,2.48-.51,3.75-.51q25.88,0,51.75.1c1.85,0,2.87-.45,3.61-2.3,11.24-28,22.73-55.9,33.72-84,1.95-5,2.49-10.72,2.7-16.15.8-20.48-2-40.72-6.14-60.67-5.59-26.88-12.14-53.57-18.36-80.32a9.64,9.64,0,0,0-10.66-7.28,6.18,6.18,0,0,0-6,5.74,37.79,37.79,0,0,0-.14,4.52q0,60.48,0,121a21.75,21.75,0,0,1-.06,3.23c-.44,2.8-2.1,4.44-5,4.57a5,5,0,0,1-5.23-4.66,20.32,20.32,0,0,1-.06-2.59q0-61.62,0-123.23c0-9.73,4.23-16,12.25-18.3,8.2-2.32,18.59,1.57,23,8.73a15.48,15.48,0,0,1,1.45,3.92c9.36,34.11,17.52,68.48,22.44,103.54,2.25,16,3.76,32.1,2.47,48.34-.81,10.27-5.26,19.27-9,28.54-9,22.51-18.18,44.95-27.19,67.45a17.23,17.23,0,0,0-1.15,5.94c-.14,6.9,0,13.8-.08,20.7,0,4.86-1.76,6.58-6.65,6.58q-49.49,0-99,0c-4.83,0-6.58-1.79-6.59-6.67,0-12.93-.08-25.87.08-38.81a10.44,10.44,0,0,1,1.8-5.63q20.43-28.51,41.13-56.84a25.28,25.28,0,0,1,34.84-5.93c11.36,7.85,14.14,22.31,6.55,34.3Q316.89,341.3,308,355c-2.57,4-7.43,4.17-9.39.45-1.2-2.29-.49-4.32.82-6.35q8.69-13.46,17.26-27c4.67-7.34,3.25-15.71-3.38-20.31a14.87,14.87,0,0,0-20.72,3.47c-13.45,18.34-26.73,36.8-40,55.24a4.89,4.89,0,0,0-1,2.63c-.07,11-.05,22-.05,33.28Z"/><path class="cls-3" d="M108.46,384.2v12.37h91.16c.06-1.15.17-2.18.18-3.22,0-9.59.08-19.19-.06-28.78a8.71,8.71,0,0,0-1.51-4.7q-19.29-26.94-38.79-53.73c-4.44-6.12-11-8.4-17.56-6.19-6.27,2.12-10.46,7.84-9.9,14.3a17.9,17.9,0,0,0,2.52,7.52c5.39,8.82,11.08,17.47,16.65,26.19.52.82,1.09,1.61,1.53,2.47a5.19,5.19,0,0,1-1.58,6.88A5.08,5.08,0,0,1,144,355.9c-6.73-10.41-13.76-20.65-19.84-31.43-6.2-11-1.74-25.13,9.17-31.91a25.21,25.21,0,0,1,33.58,6.25c14,19.1,27.89,38.35,41.72,57.61a8.73,8.73,0,0,1,1.49,4.76c.12,13.26.09,26.52.06,39.78,0,4.24-1.89,6.13-6.14,6.13q-50,.06-99.93.05c-4.25,0-6.09-1.86-6.13-6.13-.06-6.79.11-13.58-.11-20.37a23.57,23.57,0,0,0-1.59-7.78q-15.6-39-31.48-77.91a67,67,0,0,1-4.64-24c-.53-20.81,2.48-41.28,6.1-61.67C71.14,181.6,78,154.33,85,127.09c2.28-8.83,12.75-14.24,19.61-13.46,9.85,1.12,17,8.15,17.53,17.66.09,1.39,0,2.8,0,4.2V254.18c0,.54,0,1.08,0,1.62-.06,4.17-1.87,6.41-5.19,6.4s-5.15-2.25-5.15-6.43q0-60,0-120c0-1.3,0-2.6-.08-3.88a8.4,8.4,0,0,0-8-7.9c-4.28-.33-7.54,2-8.74,6.38-9.5,34.75-17.62,69.79-22.38,105.53-1.88,14.1-3.34,28.29-1.56,42.53a42.26,42.26,0,0,0,2.53,10.31c10.87,27.21,21.94,54.34,32.8,81.56,1.11,2.78,2.45,3.6,5.39,3.57,17-.19,34.07-.14,51.1-.15,4.11,0,6.43,1.89,6.48,5.15s-2.21,5.21-6.36,5.22q-24.4.09-48.83.09Z"/><path class="cls-4" d="M132.52,210.15c0-15.74.06-31.48-.05-47.22a7.07,7.07,0,0,1,4.1-7q42.51-23.64,84.91-47.49a7.72,7.72,0,0,1,8.43,0q42.41,23.85,84.92,47.48a7.1,7.1,0,0,1,4.06,7q-.11,47.22,0,94.43c0,3.87-1.43,6.13-4.72,8Q272.41,288.57,230.75,312c-3.65,2.07-6.52,2-10.16,0q-41.91-23.68-84-47a7.12,7.12,0,0,1-4.11-7C132.58,242.06,132.52,226.11,132.52,210.15Zm10.35.32c0,13.47.18,26.95-.1,40.42-.09,4.14,1,6.38,4.84,8.46,25.4,13.92,50.62,28.19,76,42.22a5.19,5.19,0,0,0,4.31,0c26.18-14.5,52.29-29.15,78.45-43.7a3.74,3.74,0,0,0,2.2-3.8q-.07-43.5,0-87a4,4,0,0,0-2.39-4Q267,141.27,228,119.34a4.21,4.21,0,0,0-4.73,0q-38.75,21.75-77.59,43.34c-2.24,1.24-2.89,2.61-2.87,5.05C142.93,182,142.87,196.24,142.87,210.47Z"/><path class="cls-5" d="M162.91,210.54c.68-30.65,23.36-57.12,53.22-61.47,30.82-4.48,59.95,13.71,68.88,43.12a5.07,5.07,0,0,0,3.63,3.87,18,18,0,0,1,12,19.28,18.34,18.34,0,0,1-15.75,15.73,18.11,18.11,0,0,1-19.22-11.66,17.64,17.64,0,0,1,7.16-21.47c2.35-1.45,2.32-2.68,1.52-4.9-8.12-22.35-30.75-36.73-53.79-34.08-24.95,2.88-43.57,21.54-46.4,46.52-2.63,23.13,11.9,46.08,34.5,53.7,5.32,1.79,11.21,1.84,16.72,3.16,1.92.46,4.36,2,5,3.63.56,1.46-.55,4.3-1.85,5.52s-3.62,1.08-5.49,1c-26-.88-49.44-18.93-56.71-43.95C164.63,222.71,164,216.55,162.91,210.54Zm127.44,2.59a7.74,7.74,0,1,0-7.88,7.67A7.78,7.78,0,0,0,290.35,213.13Z"/><path class="cls-6" d="M207.57,192c0-3.4,0-6.61,0-9.82.11-6.1,4.25-10.4,10.33-10.55q7.76-.19,15.51,0c6.1.15,10.25,4.43,10.37,10.51.06,3.21,0,6.43,0,9.79a11.92,11.92,0,0,0,1.7.36c7.49.43,11.22,4.26,11.23,11.64q0,14.39,0,28.77c0,7.24-4.18,11.36-11.47,11.38q-19.56,0-39.11,0c-7.45,0-11.5-4.12-11.51-11.66q0-13.1,0-26.18C194.64,196.11,197.05,193.37,207.57,192Zm-2.4,10.78v30.74h16c.39-3.14.8-5.9-2-8.55-3-2.92-2.38-8,.75-11.07a8.33,8.33,0,0,1,11.41,0c3.13,3,3.79,8.14.75,11.06-2.78,2.65-2.35,5.42-2,8.55h16V202.82Zm13-20.66v10h15v-10Z"/></svg>