<svg id="Layer_1" data-name="Layer 1" xmlns="http://www.w3.org/2000/svg" xmlns:xlink="http://www.w3.org/1999/xlink" viewBox="0 0 500 500"><defs><style>.cls-1{fill:#efefef;}.cls-2{fill:url(#linear-gradient);}.cls-3{fill:url(#linear-gradient-2);}.cls-4{fill:url(#linear-gradient-3);}.cls-5{fill:url(#linear-gradient-4);}</style><linearGradient id="linear-gradient" x1="277.57" y1="85.28" x2="352.61" y2="215.06" gradientUnits="userSpaceOnUse"><stop offset="0" stop-color="#01064b"/><stop offset="0.52" stop-color="#4e95ed"/><stop offset="1" stop-color="#132b94"/></linearGradient><linearGradient id="linear-gradient-2" x1="119.81" y1="176.48" x2="194.84" y2="306.27" xlink:href="#linear-gradient"/><linearGradient id="linear-gradient-3" x1="135.27" y1="167.54" x2="210.3" y2="297.33" xlink:href="#linear-gradient"/><linearGradient id="linear-gradient-4" x1="277.62" y1="85.25" x2="352.66" y2="215.03" xlink:href="#linear-gradient"/></defs><circle class="cls-1" cx="307" cy="313" r="157"/><path class="cls-2" d="M425.43,164.6c-.24.33-.71.68-.7,1,.17,3.07-1.63,5.44-3.43,7.34a11.11,11.11,0,0,1-8.06,3.63H402.65c-1.74,4.66-3.23,9-5,13.25-1.54,3.65-3.45,7.12-5.09,10.72a2.32,2.32,0,0,0,.24,2c2.35,2.53,5.07,4.76,7.19,7.46a14.71,14.71,0,0,1,2.61,6.11c1,5-1.65,8.7-4.93,12-2.62,2.67-5.22,5.37-7.94,7.94-3,2.81-6.32,4.8-10.66,4.49a12.89,12.89,0,0,1-7.67-3.19c-1.85-1.61-3.52-3.44-5.25-5.18-2.58-2.59-3-2.44-6.2-.61a96.66,96.66,0,0,1-9.8,4.67c-2.12.93-4.34,1.64-6.52,2.43-1.14.41-2.28.85-3.45,1.15-1.42.36-1.65,1.31-1.63,2.57,0,2.5-.09,5,0,7.51.28,5.85-2.77,9.55-7.72,12a8.66,8.66,0,0,1-3.6.78c-5.28.08-10.59-.17-15.86.09-5.59.28-11.36-4.56-12-9.43-.42-3.13-.51-6.31-.69-9.47-.08-1.2,0-2.41,0-3.66-8.54-2.68-16.88-5.39-24.62-10.74-2,2.2-4,4.36-6,6.43a14.18,14.18,0,0,1-11,4.72,11.41,11.41,0,0,1-7.47-3.23c-4.11-3.74-7.95-7.77-11.83-11.75-1.59-1.63-2.09-3.76-2.69-5.95a9.86,9.86,0,0,1,1.61-8.5,62.1,62.1,0,0,1,6.36-7.23c2.65-2.82,2.5-3.42.52-6.76a70.53,70.53,0,0,1-4.75-10.15c-1.2-3-1.91-6.26-3-9.33a2.57,2.57,0,0,0-2-1.12,83,83,0,0,0-8.78,0c-5.43.34-11-4.48-11.9-9.35a28.13,28.13,0,0,1-.62-4.35c-.07-4.5.06-9,0-13.51-.11-5.08,3.94-11.06,9.23-12a65.66,65.66,0,0,1,10.31-.68c2.2,0,3.49,0,4.16-3,1-4.62,3.24-9,5.12-13.41,1.07-2.49,2.56-4.8,3.68-7.28a2.5,2.5,0,0,0-.41-2.18c-1.68-1.9-3.5-3.69-5.33-5.44a12.85,12.85,0,0,1-4.08-7.7,12.46,12.46,0,0,1,3.76-11.45c3.26-3.31,6.57-6.58,9.89-9.83a12.53,12.53,0,0,1,9.33-3.86A11.08,11.08,0,0,1,266,75.84c2.09,2.1,4.27,4.11,6.29,6.28a2.33,2.33,0,0,0,3.32.53,108.18,108.18,0,0,1,9.85-5A96.64,96.64,0,0,1,296,74.06c1.82-.53,2.93-1.11,2.76-3.31-.2-2.63-.07-5.29,0-7.93,0-4.47,3.78-10.62,9-11.6a33.62,33.62,0,0,1,5.36-.7c4.5-.1,9,.09,13.51-.07,5.65-.2,10.31,4.89,12,9.14a4.38,4.38,0,0,1,.07,1.5c0,3,0,6,0,9,0,2.62.59,3.19,3.08,4,3.68,1.11,7.39,2.21,10.94,3.68a86,86,0,0,1,9.72,4.92,1.71,1.71,0,0,0,2.51-.34c1.78-1.82,3.61-3.58,5.37-5.41,3-3.09,6.59-4.78,10.81-4.26a11.93,11.93,0,0,1,5.92,2.54C391,78.58,394.78,82.3,398.55,86a13.41,13.41,0,0,1,4.06,12c-.49,3.23-2.53,5.76-4.67,8.11-1.85,2-3.88,3.9-5.75,5.76,2,4.05,4.16,8,5.85,12s2.88,8.29,4.41,12.8c3.41,0,7.18.12,10.94,0,5-.21,11.87,6.62,11.35,11.14-.07.57.44,1.2.69,1.8ZM416.87,157h0c0-2.36,0-4.72,0-7.08a5.52,5.52,0,0,0-.3-1.85c-.93-2.6-3.16-3.42-5.56-3.52-4.06-.17-8.15-.14-12.22,0a3.81,3.81,0,0,1-3.82-2.78c-1.44-4-2.37-8.25-3.76-12.31a48.59,48.59,0,0,0-6.5-13.15c-2.74-3.73-2.72-6.3.5-9.5,2.65-2.64,5.31-5.28,7.95-7.93a4.63,4.63,0,0,0,0-6.19q-5.24-5.26-10.5-10.49a4.92,4.92,0,0,0-6.45.06c-2.89,2.9-5.74,5.85-8.69,8.69-1.78,1.71-3.78,2.2-6,.92-3.28-1.86-6.61-3.68-10.05-5.21s-7.12-2.78-10.73-4c-2.32-.81-4.8-1.24-7-2.19a4.39,4.39,0,0,1-3-4.53c.18-3.85,0-7.71.05-11.57,0-4.54-2.44-5.61-5.78-5.9a88.87,88.87,0,0,0-12.64,0c-1.91.11-4.21.53-5,2.75a17.82,17.82,0,0,0-.72,5.16c-.11,3.43,0,6.86-.07,10.29a4.51,4.51,0,0,1-.89,2.21c-1.68,2.51-4.7,2-7.07,3-4.43,1.77-9.08,3-13.46,4.87A104.45,104.45,0,0,0,275.38,92c-1.64.92-3.08,1-4.51-.54a89,89,0,0,0-8.73-8.64c-3.29-2.61-4.75-3.64-8.2-.07-2.95,3-6,6-8.95,9-2.63,2.63-2.62,5.21.07,7.94s5.27,5.32,7.91,8c1.9,1.9,2.14,3.28.91,5.78-.7,1.41-1.46,2.79-2.23,4.17A74.31,74.31,0,0,0,243,140.45c-.55,3-2.26,4-5.42,4-3.79,0-7.58.06-11.37,0s-5.66,2.5-5.83,5.63a126.62,126.62,0,0,0,0,13.07c.08,1.9.56,4.14,2.73,4.76a27,27,0,0,0,6.43.76c3.21.12,6.43.06,9.65,0a3,3,0,0,1,3.14,2.48c.92,3.14,2,6.23,2.82,9.4a51.16,51.16,0,0,0,7,15.43c.78,1.2,1.56,2.41,2.22,3.67.89,1.73.16,4.26-1.65,6.07-2.9,2.89-5.81,5.77-8.71,8.67-1.34,1.33-1.37,4.77,0,6.12q5.31,5.33,10.66,10.61c1.36,1.35,4.76,1.3,6.15-.08,2.9-2.89,5.78-5.8,8.68-8.69,1.56-1.55,4.74-2.2,6.25-1.41,5,2.64,9.93,5.49,15.09,7.79A52.83,52.83,0,0,0,301.67,232c3.75.77,4.86,1.74,4.88,5.62,0,3.57-.06,7.15,0,10.72.09,4.39,1.93,6.45,5.85,6.51,4.14.07,8.3.17,12.44-.05,3.6-.19,5.95-1.86,5.85-6.07-.1-3.93,0-7.87,0-11.8a4.57,4.57,0,0,1,3.34-4.14c2.38-.63,4.74-1.35,7.09-2.07s4.75-1.38,7-2.29a69.48,69.48,0,0,0,6.87-3.25c2.36-1.26,4.53-2.88,7-4,1.79-.82,3.68-1,5.37.85,2.92,3.17,6.05,6.14,9.16,9.13a4.27,4.27,0,0,0,2,.88c2.62.54,4.63-.74,6.31-2.49,3.36-3.49,7.44-6.39,9.53-11a3.07,3.07,0,0,0-.07-2.21c-1.93-4.64-5.88-7.53-9.57-10.58-1.84-1.52-2.67-3.64-1.5-5.82s2.66-4,3.65-6.2c2.05-4.46,4-9,5.73-13.57a51.37,51.37,0,0,0,2.19-7.9,4.12,4.12,0,0,1,4-3.56c4,0,8,0,12,0s6.09-2.16,6.09-6.16Z"/><path class="cls-3" d="M294.55,339.69c-2.7,3.45-5.23,7.11-8.21,10.36s-6.66,6.44-10.07,9.58c-1.69,1.55-3.51,3-5.25,4.47-.37.31-.65.76-1,1-3,2-2.88,2-1.33,5.42a88.29,88.29,0,0,1,4.88,12.21,16.29,16.29,0,0,1-9.2,19.34q-8.52,3.76-17.18,7.18c-5.32,2.1-10.75,2.55-15.75-.73a14.19,14.19,0,0,1-5.74-6.28c-2-4.92-4.32-9.75-6.73-15.16l-5.43.9c-.21,0-.42,0-.64.05-5.94.24-11.89.69-17.83.63-3.44,0-6.86-.94-10.31-1.33a39.3,39.3,0,0,0-4.46,0c-1.64,3.83-3.13,7.51-4.78,11.11-1.14,2.48-2.08,5.26-3.89,7.16a21.66,21.66,0,0,1-7.1,4.42c-4.81,2.1-9.38.33-13.87-1.52-5-2.09-10.17-4-15.1-6.3-4.17-2-7.76-4.8-9.18-9.56a17,17,0,0,1,1.16-13.29,92.14,92.14,0,0,0,4.39-10.8c.78-2.16-1.33-2.9-2.46-3.95-1.45-1.33-3.27-2.26-4.78-3.54a71.63,71.63,0,0,1-7.11-6.47c-3.48-3.86-6.66-8-10-12a35.24,35.24,0,0,0-2.82-2.69c-4.27,1.74-8.67,3.42-13,5.33-5.72,2.55-10.91,1.91-16-1.66-3.23-2.24-4.93-5.34-6.32-8.78-2.56-6.34-5.62-12.54-7.53-19.07-1.34-4.58-.27-9.29,3-13.37,3.11-3.88,7.31-5.44,11.69-7a55.34,55.34,0,0,0,7.66-3.54c.51-.28.68-1.52.67-2.31a20.77,20.77,0,0,0-.53-3.48c-1.44-7.39-.65-14.85-.7-22.27a42.3,42.3,0,0,1,1.3-8.6c.37-1.79-.49-2.5-1.92-3.13-5.5-2.44-11.32-4.42-16.33-7.65a12.53,12.53,0,0,1-5.21-9.47C61,229.61,62.79,225,65,220.35c2.09-4.47,3.69-9.17,5.78-13.64s5.85-6.9,10.65-8.26c4.21-1.2,7.74.06,11.39,1.6,3.27,1.39,6.58,2.7,9.79,4.21,2.1,1,3.25-.19,4.32-1.54,1.28-1.61,2.3-3.43,3.62-5a61.51,61.51,0,0,1,6.49-7.08c4.24-3.66,7.89-8,12.82-10.88a3.3,3.3,0,0,0,1.44-4.82c-1.54-3.05-2.85-6.22-4.12-9.39-2.31-5.78-2.67-11.33,1-17,2.38-3.68,6-5.16,9.54-6.88s7.48-3.11,11.28-4.53,7.57-4,11.93-3.34a16.37,16.37,0,0,1,8.38,3.25c3.62,3,5.5,6.94,7.05,11.25,1.41,3.91,3.29,7.65,5,11.45,1.37,3.06.75,4.92-2.19,6.3-1.62.77-4.43-.63-5.08-2.31-1.49-3.88-3-7.75-4.71-11.55-1.12-2.55-2.44-5-3.81-7.44a4.9,4.9,0,0,0-4.09-2.52c-3.81-.39-6.95,1.42-10.26,2.71-3.83,1.49-7.59,3.16-11.46,4.52-3.53,1.24-7.14,6.21-6.2,9.25.79,2.59,1.9,5.08,2.94,7.59,1.56,3.8,3.22,7.55,4.76,11.36.73,1.83-.47,4.21-2.18,5.32a69.64,69.64,0,0,0-6.3,4.61,107.23,107.23,0,0,0-9.57,8.34c-3.25,3.39-6.07,7.21-9,10.89-1.62,2-3.05,4.15-4.71,6.11s-3.91,1.06-5.83.26c-5.06-2.1-10.06-4.38-15.11-6.51-4.54-1.92-9,.25-11.3,5.52-2.37,5.47-4.82,10.92-6.86,16.52-1.67,4.56-.77,8.56,4.18,10.82,4.12,1.88,8.37,3.45,12.52,5.27a35.86,35.86,0,0,1,5.51,3,3,3,0,0,1,1,2.36c-.33,3.67-.87,7.32-1.32,11a11.11,11.11,0,0,0,0,1.29c0,5.86-.15,11.73.06,17.58.11,3.18.94,6.32,1.25,9.5a25.44,25.44,0,0,1,0,6c-.1.75-1.12,1.64-1.93,2-5,2.23-10.06,4.25-15,6.51a16.28,16.28,0,0,0-5,3.21c-3,3.11-1.91,6.66-.48,10.13,2.09,5.07,4,10.19,6.22,15.21,2.45,5.62,6.26,7.18,12.71,4.61,5.44-2.18,10.8-4.56,16.22-6.81,1.14-.47,3.54,1.15,4.49,2.56a104.53,104.53,0,0,0,6.76,9.4,90.12,90.12,0,0,0,8.69,8.68c3.48,3.08,7.21,5.87,10.84,8.77,1,.83,2,1.69,3.12,2.42,1.79,1.21,1.55,3.06,1.12,4.6-.7,2.54-1.9,5-2.84,7.43-1.42,3.69-3,7.33-4.14,11.1-1.34,4.37.77,7.57,5.16,9.19,4,1.47,7.77,3.47,11.72,5,2.85,1.11,5.5,2.65,8.78,2.79a6.93,6.93,0,0,0,6.85-3.94,88.65,88.65,0,0,0,3.78-8.22,80.26,80.26,0,0,0,3.24-7.95c.56-1.82,1.23-3.3,3.15-3.75a11.52,11.52,0,0,1,2.82-.1c.33,0,.65.26,1,.32a137.43,137.43,0,0,0,28.08,1.45c2.37-.1,4.71-.93,7.08-1.34a30,30,0,0,1,5.4-.68,4.4,4.4,0,0,1,4.08,2.8c2.16,4.95,4.2,9.95,6.42,14.87a26.74,26.74,0,0,0,2.89,4.73c1.62,2.23,6.42,2.12,8.62,1.24,5.47-2.19,10.91-4.45,16.37-6.67,6.37-2.59,7.88-6.86,4.73-14q-3.27-7.39-6.15-15a3.15,3.15,0,0,1,.81-2.8c2.78-2.36,5.75-4.47,8.65-6.68a6,6,0,0,0,.43-.45c3.1-2.84,6.4-5.48,9.23-8.55,3.15-3.39,5.86-7.18,8.77-10.79,1.18-1.46,2.39-2.88,3.56-4.34a4.53,4.53,0,0,1,5.81-1.41c3.51,1.5,6.91,3.27,10.46,4.67a49,49,0,0,0,8.08,2.38c4.14.85,6.57-1.6,8.1-5s2.86-7.1,4.31-10.64c1.14-2.78,2.46-5.49,3.48-8.31a7.17,7.17,0,0,0-3.3-8.16c-3.49-1.82-7.15-3.32-10.75-4.93-2.81-1.25-5.75-2.26-8.42-3.77a3.34,3.34,0,0,1-1.49-4.21,5.15,5.15,0,0,1,3.44-2.55,14.5,14.5,0,0,1,5.68,1.36c4.53,1.78,9.08,3.55,13.45,5.67,5.2,2.52,8.6,6.39,9.5,12.52.66,4.49-1.06,8.19-2.42,12.06-1.44,4.05-3.26,8-4.94,11.93-2.39,5.68-5.67,10.27-12.17,12a15.85,15.85,0,0,1-10.5-.89c-4-1.6-8-3.26-12-4.9C295.52,340.21,295.11,340,294.55,339.69Z"/><path class="cls-4" d="M142.72,272.32c0-1,.05-2,0-3a37,37,0,0,1,3.22-16.45A82.52,82.52,0,0,1,153.76,238c2.55-3.69,6.39-6.47,9.55-9.75,4.12-4.29,9.39-6.7,14.68-9,2.79-1.22,5.83-1.84,8.74-2.79A36.2,36.2,0,0,1,199.19,215c2.82.09,4.08,1.32,4,4.11a4.16,4.16,0,0,1-4.11,3.78,51.69,51.69,0,0,0-29.4,10.25,55.93,55.93,0,0,0-10.25,10.81c-2.93,4-4.6,8.43-6.61,12.75-1.11,2.37-1.21,5.25-1.54,7.93a50.7,50.7,0,0,0-.71,9.57,57.07,57.07,0,0,0,2,11.6A83.14,83.14,0,0,0,157,296.85a24.79,24.79,0,0,0,3.18,5,53.58,53.58,0,0,0,10.77,10.27c5.21,3.86,11.09,6.05,17.06,8.1,2,.69,4.23.63,6.36.92a23.88,23.88,0,0,0,4.56.56c3.4-.23,6.79-.62,10.15-1.15a54.78,54.78,0,0,0,6.43-1.57,38.57,38.57,0,0,0,13.78-7.24,55.76,55.76,0,0,0,7.43-6.79,48.12,48.12,0,0,0,9.42-15.81,47,47,0,0,0,2.71-15.76,6.52,6.52,0,0,1,3-5.44c1.92-1.31,5.63,1.13,5.49,3.88-.21,4-.79,8.05-1.29,12.06-.78,6.27-3.63,11.78-6.47,17.28a24.86,24.86,0,0,1-3.21,5c-3.05,3.47-6,7.13-9.51,10.05-5.72,4.73-12,8.68-19.36,10.6a68.32,68.32,0,0,1-9.65,2.09,93.74,93.74,0,0,1-13.7.72c-3-.1-5.89-1.2-8.84-1.86a44.73,44.73,0,0,1-13.33-5.27c-3.1-1.88-5.93-4.2-8.87-6.34a25.36,25.36,0,0,1-3.13-2.39,62.26,62.26,0,0,1-13.46-20,56,56,0,0,1-3-11.34c-.63-3.3-.75-6.69-1.09-10Z"/><path class="cls-5" d="M278,156c-.29-22.13,18.59-38.21,35.53-40.06,12-1.31,22.66,1.52,31.73,9.27s14.23,17.68,14.67,29.8a41.53,41.53,0,0,1-41.4,42.74,39.4,39.4,0,0,1-28.69-12.2C282.05,177.62,277.61,167.87,278,156Zm43.76-32.2c-11.73-.09-19.6,3-26,9.37A32.08,32.08,0,0,0,286,156.4a31.49,31.49,0,0,0,8.41,22,32.85,32.85,0,0,0,48.68.32c7-7.59,9.41-16.76,8.22-26.94C349.73,138.18,337.18,123.64,321.72,123.82Z"/></svg>