<?xml version="1.0" encoding="utf-8"?>
<!-- Generator: Adobe Illustrator 24.1.3, SVG Export Plug-In . SVG Version: 6.00 Build 0)  -->
<svg version="1.1" id="Layer_1" xmlns="http://www.w3.org/2000/svg" xmlns:xlink="http://www.w3.org/1999/xlink" x="0px" y="0px"
	 viewBox="0 0 200 200" style="enable-background:new 0 0 200 200;" xml:space="preserve">
<style type="text/css">
	.st0{fill:#FFFFFF;}
</style>
<g>
	<path class="st0" d="M118.7,163.7v6.6l0,0L118.7,163.7L118.7,163.7z M118.7,173.5L118.7,173.5l0,3l0,0L118.7,173.5z M118.7,179.7
		v7.8l0,0L118.7,179.7L118.7,179.7z M118.7,190.7v4.1l0.1,0L118.7,190.7L118.7,190.7z M21.3,130.7l-0.2-0.1
		c-0.1-0.1-0.2-0.1-0.3-0.2c-0.2-0.1-0.4-0.3-0.6-0.4c0.2,0.2,0.3,0.3,0.5,0.5c0.1,0.1,0.3,0.2,0.4,0.3c0.7,0.5,1.5,1,2.5,1.6
		c0.6,0.4,1.3,0.8,2,1.1l-1.9-1.2L21.3,130.7z M89.7,99.4c0,0.6,0,1.2,0,1.8L89.7,99.4z M89.7,99l0,0.4c0.1-1.1,0.3-2.1,0.7-3.1
		C89.9,97,89.7,98,89.7,99z M9.9,51.1v0.3c0.1-1,0.3-1.9,0.6-2.8C10.1,49.4,9.9,50.2,9.9,51.1z M89.7,99l0,0.4
		c0.1-1.1,0.3-2.1,0.7-3.1C89.9,97,89.7,98,89.7,99z M89.7,99.4c0,0.6,0,1.2,0,1.8L89.7,99.4z M170.9,75.1c0,0.1,0,0.1-0.1,0.1
		c-0.7,1.8-2,3.5-3.9,4.6L118.7,110v84.7l-0.1,0l-1.4-0.9v0l-12-7.9c-8.6-5.7-13.9-15.2-14.1-25.5l-0.1-1.9l-0.8-38.9l-0.1,0.1v0
		l-0.3-11.7l-0.2-6.9l0-1.8c0.1-1.1,0.3-2.1,0.7-3.1c0.6-1.4,1.5-2.6,2.7-3.7c0,0,0,0,0,0c0.4-0.3,0.7-0.6,1.2-0.9l34.6-21.7l1-0.6
		l-11.1-7.2l-0.6,0.4L78.9,87.2V168l-3.9-2.3l-2.5-1.5l-6.1-3.7l-2.5-1.5l-2.4-1.4l-2.3-1.4l-0.3-0.2c-5.7-3.4-9.2-9.6-9.2-16.3
		V76.1c0-1.1,0.4-2.2,1-3c0,0,0,0,0,0c0.8-1.6,2-3.1,3.7-4.1l38-23.8l-12.7-8.3L38.9,62.2v80.1l-0.2-0.2l-0.7-0.5l-8-5.4l-2.3-1.5
		c0,0-0.1,0-0.1,0c-0.7-0.4-1.3-0.8-2-1.2l-1.9-1.2l-2.4-1.6l-0.2-0.1c-0.1-0.1-0.2-0.1-0.3-0.2c-0.2-0.1-0.4-0.3-0.6-0.4
		c0,0,0,0,0,0c-0.6-0.4-1.1-0.8-1.6-1.3c-5.2-4.5-8.4-10.9-8.7-17.9c0-0.3,0-0.7,0-1V51.5c0.1-1,0.3-1.9,0.6-2.8c0,0,0,0,0,0
		c0.7-1.9,2.1-3.5,3.9-4.7L75.1,6c3.6-2.2,8.1-1.9,11.2,0.6c0,0,0,0,0.1,0l80.1,52.7C170.9,62.3,173.8,70.6,170.9,75.1z M20.1,129.9
		c-0.2-0.3-0.4-1-0.5-1.8c0-0.1,0-0.1,0-0.2c-0.1,0.1-0.1,0.2-0.1,0.2C19.4,128.8,19.6,129.3,20.1,129.9z M91.1,158.6l-0.8-38.9
		l-0.1,0.1l0.1,5.2l0,1l0,2.2l0.1,2.9l0.1,2.7l0.2,7.3l0.2,8.4l0.1,2.3l0.1,3.1v0L91.1,158.6z M19.6,127.9c0,0.1-0.1,0.2-0.1,0.3
		c-0.1,0.6,0.1,1.2,0.6,1.7c-0.2-0.3-0.4-1-0.5-1.8C19.6,128,19.6,127.9,19.6,127.9z M29.9,136.3l-2.3-1.5c0,0,0,0-0.1,0
		c-0.7-0.4-1.3-0.8-2-1.2l1.9,1.2L29.9,136.3l8,5.4L29.9,136.3z"/>
	<g>
		<path class="st0" d="M134.7,149.7l15.5-10.4l0.1-0.1c0.2-0.1,0.3-0.2,0.5-0.2c0-0.1,0-0.2,0-0.3c0-0.8,0.3-1.6,0.8-2.2
			c-1.8,0.5-3.5,1.1-5.3,1.8c-1.8,0.8-3.5,1.7-5.1,2.7l-9,5.7l-13.6,8.6v5.1l5.2-3.5L134.7,149.7z"/>
		<path class="st0" d="M166.1,140.1c0.8,0,1.5-0.7,1.5-1.5c0-0.8-0.7-1.5-1.5-1.5c-0.8,0-1.5,0.7-1.5,1.5
			C164.6,139.4,165.3,140.1,166.1,140.1z"/>
		<path class="st0" d="M173,140.7c0,0.8,0.7,1.5,1.5,1.5c0.8,0,1.5-0.7,1.5-1.5c0-0.8-0.7-1.5-1.5-1.5
			C173.7,139.2,173,139.8,173,140.7z"/>
		<path class="st0" d="M181,145.2c0,0.8,0.7,1.5,1.5,1.5c0.8,0,1.5-0.7,1.5-1.5c0-0.8-0.7-1.5-1.5-1.5
			C181.6,143.7,181,144.4,181,145.2z"/>
		<path class="st0" d="M159.2,160.4l1.5-6.8l8.3-5.7l6.1,1.9l4.3-2.9c-0.3-0.5-0.4-1-0.4-1.6c0-1.9,1.6-3.5,3.5-3.5
			c0.2,0,0.5,0,0.7,0.1l-1.6-1c-1.4-0.8-2.8-1.6-4.3-2.3c0.5,0.6,0.7,1.3,0.7,2.1c0,1.9-1.6,3.5-3.5,3.5c-0.7,0-1.3-0.2-1.9-0.6
			l-22.5,15.2l-0.6,5.8l-1.7,1.1l-6.7,4.1l-5.4-1.3l-17,11.2v7.8l30.3-20.3L159.2,160.4z"/>
		<path class="st0" d="M47.4,128.4c0,0.8,0.7,1.5,1.5,1.5c0.3,0,0.6-0.1,0.8-0.2v-2.5c-0.2-0.2-0.5-0.2-0.8-0.2
			C48.1,126.9,47.4,127.5,47.4,128.4z"/>
		<path class="st0" d="M123.9,160.1l-5.2,3.5v6.6l7.9-5.3l10.7-7.2l0.9-3.8l0.5-1.9l7.6-5l5.7,0.8l11.1-7.6
			c-0.3-0.5-0.4-1.1-0.4-1.7c0-1.6,1-2.9,2.4-3.3c-3-0.3-6-0.2-9,0.2c1.1,0.6,1.8,1.7,1.8,3.1c0,1.9-1.6,3.5-3.5,3.5
			c-0.9,0-1.7-0.3-2.4-0.9c0,0.1-0.1,0.1-0.1,0.1c0,0,0,0-0.1,0l-15.4,10.4L123.9,160.1z"/>
		<path class="st0" d="M135.2,165.6l5.5,1.3l5.5-3.3l0.9-0.6l0.6-5.7l23.5-15.8l0,0c-0.1-0.3-0.1-0.5-0.1-0.7c0-1.8,1.3-3.2,3-3.5
			c-2-0.7-4-1.2-6-1.6c1,0.6,1.6,1.7,1.6,3c0,1.9-1.6,3.5-3.5,3.5c-0.3,0-0.6-0.1-0.9-0.1c-0.1,0.1-0.2,0.2-0.3,0.2l-12.3,8.5
			l-5.7-0.9l-5.8,3.9l-0.7,2.8l-0.7,2.8l-13,8.8l-7.9,5.3l0,3L135.2,165.6z"/>
		<path class="st0" d="M185.2,143c0.4,0.6,0.7,1.3,0.7,2.1c0,1.9-1.6,3.5-3.5,3.5c-0.3,0-0.7,0-1-0.1c-0.1,0.1-0.2,0.2-0.3,0.3
			l-5.7,3.8l-0.2,0l-5.9-1.8l-6.3,4.4l-1.4,6.7l0,0.2l-10.9,7.3l-32,21.4v4.1l34.1-22.9l7.1-4.7l16.1-10.8l7.1-4.8l0.2-0.1l5.1-3.4
			l2.2-1.5L185.2,143z"/>
		<polygon class="st0" points="90.2,119.8 90.2,119.8 78.9,126.7 78.9,132.7 90.3,125 90.3,125.9 90.3,128.1 78.9,135.9 78.9,142.6 
			80.3,141.6 81.8,135.9 89.3,130.9 90.4,131.1 90.5,133.7 89.9,133.7 84.1,137.6 82.7,143.2 78.9,145.8 78.9,149.6 83.7,150.7 
			90,146.8 90.7,141.1 90.9,149.5 84.1,153.6 78.9,152.3 78.9,159.8 90.9,151.8 91,154.9 91,154.9 78.9,163 78.9,168 91.1,158.6 
			90.3,119.7 		"/>
		<polygon class="st0" points="38.9,110.4 39.8,109.8 45.5,110.7 49.7,107.8 49.7,100.3 38.9,106.9 		"/>
		<polygon class="st0" points="40.4,112.6 38.9,113.6 38.9,119.1 39,119.1 44.5,120.3 49.7,117.1 49.7,111 46.1,113.5 		"/>
		<path class="st0" d="M39.5,121.9l-0.6,0.4v8.8l1.9,0.6l4.3-2.9l0.3-0.2c0-0.1,0-0.2,0-0.3c0-1.9,1.6-3.5,3.5-3.5
			c0.3,0,0.5,0,0.8,0.1v-4.7l-4.8,2.9L39.5,121.9z"/>
		<path class="st0" d="M46.6,131l-5.4,3.6l-0.2,0l-2.1-0.7v8.4l10.8-7.5v-3.1c-0.3,0.1-0.5,0.1-0.8,0.1
			C48,131.9,47.3,131.5,46.6,131z"/>
		<line class="st0" x1="118.8" y1="194.7" x2="118.7" y2="155.3"/>
		<path class="st0" d="M154.4,140.1c0.8,0,1.5-0.7,1.5-1.5c0-0.8-0.7-1.5-1.5-1.5c-0.8,0-1.5,0.7-1.5,1.5
			C152.9,139.4,153.5,140.1,154.4,140.1z"/>
	</g>
</g>
</svg>
