<?xml version="1.0" encoding="utf-8"?>
<!-- Generator: Adobe Illustrator 24.1.3, SVG Export Plug-In . SVG Version: 6.00 Build 0)  -->
<svg version="1.1" id="Layer_1" xmlns="http://www.w3.org/2000/svg" xmlns:xlink="http://www.w3.org/1999/xlink" x="0px" y="0px"
	 viewBox="0 0 624.5 213.7" style="enable-background:new 0 0 624.5 213.7;" xml:space="preserve">
<style type="text/css">
	.st0{fill-rule:evenodd;clip-rule:evenodd;fill:#FFFFFF;}
	.st1{fill:#FFFFFF;}
</style>
<g>
	<g>
		<path class="st0" d="M609.3,107.4c0,44.8-36.3,81.1-81.1,81.1c-14.3,0-27.8-3.7-39.5-10.3c0.6-10.5,1.8-20.3,3.6-29.4h11.2
			c3.1,0,5.9-1.9,7-4.9l29.8-79.7c11.9-10,24.5-17.1,36-22.1c8.1,5.9,15,13.3,20.4,21.8H547l-38,98l26.5-12.7l24.2-65.4H583
			L577.9,98l-20.3,10l-9.8,26l48.3-24.2l9.7-26.3C608,91,609.3,99,609.3,107.4z"/>
		<path class="st1" d="M182.3,103.1c-2.1-1.1-3.7-2.3-4.8-3.4c-1.8,4.3-2.7,6.7-2.7,7c0,0.6,1.1,1.6,3.3,2.9c2,1.1,3.2,1.7,3.5,1.7
			c0.7,0,1.3-0.8,1.9-2.4c0.5-1.3,0.7-2.5,0.7-3.4C184.2,104.6,183.5,103.8,182.3,103.1z"/>
		<path class="st1" d="M183.1,92.8c-2.8-1.3-4.7-2.4-5.7-3.1c-1,3.3-1.7,5.6-2.1,7c0,0.7,0.6,1.4,1.7,2c2.2,1.1,4.5,2.3,6.7,3.4
			c1.6-1.8,2.3-4.1,2.3-6.7C186,94.5,185,93.7,183.1,92.8z"/>
		<path class="st1" d="M188,107.3c1.5,0.8,3,1.6,4.5,2.5c0.7-0.8,1.4-2,2-3.8c0.5-1.5,0.7-2.5,0.7-3.1c0-0.8-2.5-2.3-7.5-4.5
			c-0.3,0-0.9,1-1.7,2.9c-0.8,2-1.2,3.1-1.2,3.3C185,105.2,186,106.1,188,107.3z"/>
		<path class="st1" d="M211.6,58.1c0,0.1,0,0.2,0.1,0.3c1.1,0.9,1.9,1.4,2.5,1.7c5.6,8.3,9.6,13.8,12.2,16.4
			c13.9,13.5,23.7,22.9,29.3,28.1c2.8,4,4.8,7.2,5.9,9.6c0.3,0.5,0.6,1.5,1.1,3.3c0.4,1.4,0.7,2.2,0.9,2.2c0.3,0,0.6-1.6,0.7-4.7
			c0.2-2.9-0.7-6.2-2.6-10c-1.8-3.5-3.8-6.4-6.3-8.7c-22.5-21.4-34.1-33.3-35-35.9c1.6,0.2,2.8,0.4,3.4,0.5c0.5,0.1,0.9,0.2,1.1,0.2
			c0.4,0,0.6-0.1,0.6-0.3c0-0.5-1.4-1.7-4.3-3.7c-3.9-2.7-5.9-4.2-6.2-4.3c-1.5-1.2-2.5-1.8-3.1-1.8c-0.1,0-0.1,0-0.1,0.1
			c0,0.1,0,0.2,0.1,0.3c0.2,0.8,0.2,1.7,0.2,2.5c0,0.9-0.1,1.8-0.3,2.8C211.7,57.5,211.6,58,211.6,58.1z"/>
		<path class="st1" d="M235.3,57.7c2.4-2,5.3-3.9,8.8-5.7c3.2-1.7,5.3-2.9,6.1-3.7c1.1-1,1.6-2.3,1.6-3.9c0-0.3-0.1-0.4-0.3-0.4
			c-4.6,2.8-7.4,4.2-8.5,4.2c-1.7,0-3.7-1.1-5.9-3.3c1.5-2.2,2.9-3.3,4.2-3.3c0.6,0,1.1,0.3,1.4,0.9c0.5,0.9,0.9,1.5,1.3,1.8
			c0.8,0.1,1.4-1.2,2-3.9c0-2.1-0.8-3.1-2.4-3.1c-1.7,0-3.8,1.3-6.1,4c-2.4,2.6-3.6,4.8-3.6,6.5c0,0.9,0.5,1.8,1.6,2.7
			c1,1,2.1,1.4,3.1,1.5c-1.6,0.8-2.7,1.6-3.4,2.4c-0.1,0.1-0.6,0.8-1.4,2.1c-0.4,0.6-0.6,1.1-0.6,1.5
			C233.1,59,233.9,58.9,235.3,57.7z"/>
		<path class="st1" d="M268.1,83.1c-2.4-13.6-4-22.7-4.7-27.2c1.1,1,2,1.8,2.7,2.5c0.5,0.4,0.8,0.6,1.1,0.6c0.7,0,0.9-0.6,0.4-1.8
			c-4-8.6-6.4-13.5-7.3-14.8c-0.4-1-0.8-1.5-1.1-1.5c-0.2,0-0.4,0.2-0.5,0.7c-0.9,3.8-1.5,6.1-1.7,6.9c-0.1,0.5,0.3,1.3,1.4,2.4
			c0.2,1.9,1.9,12.2,5.3,31c2.9,16.6,4.4,27.7,4.4,33.2c0,0.9,0,1.6-0.1,2.3c-0.1,1-1,2.5-2.7,4.6c-1.7,1.9-3.4,3.8-5,5.7
			c-2.2,2.5-5.6,5.4-10.2,8.7c-0.8,0.6-4,2.8-9.5,6.6c-1.6,1.1-2.3,1.8-2.3,2.2c0,0.2,0.2,0.3,0.5,0.3c0.5,0,1.6-0.3,3.1-0.9
			c8-3.2,12.7-5.1,14.1-5.7c3.3-1.5,6.1-3.8,8.3-7c1.2-1.7,2.3-3.6,3.1-5.7c2.6-6.4,3.9-12.3,3.9-17.8c0-1.3-0.1-2.6-0.2-4
			C270.4,98,269.5,91,268.1,83.1z"/>
		<path class="st1" d="M333.7,153.1h-0.9c-2.1,0-3.5,1.7-4.1,5.1c0,0.3,0.1,0.5,0.3,0.5c0.8-0.6,1.5-0.9,1.9-0.9h1.5
			c0.7,0.3,1,0.9,1,1.5v0.2c0,1.5-2.3,4.8-7,9.9v0.2l0.9-0.2c5.9-4.6,8.9-8.8,8.9-12.5v-1.2C336,154,335.1,153.1,333.7,153.1z"/>
		<path class="st1" d="M275.3,72.7c2.4,21.9,4.3,38.2,5.7,49.1c0.3,3.4,0.3,6.6-0.1,9.7c-0.3,2.4-0.2,3.7,0.2,3.7
			c0.3,0,0.7-0.5,1.3-1.6c1.5-2.8,2.2-7.3,2.2-13.7c0-1.8-0.1-3.6-0.2-5.5c-0.6-7.5-2-18.9-3.9-34.3c-1.6-12.9-2.4-20-2.3-21
			c1.1,1.1,2.1,2,3,2.7c0.3,0.2,0.6,0.3,0.7,0.3c0.2,0,0.3-0.2,0.3-0.5c0-1-0.9-3.4-2.7-7.3c-1.1-2.5-2.3-5-3.5-7.5
			c-0.7-1.6-1.2-2.5-1.6-2.5c-0.2,0-0.3,0.1-0.3,0.4c-1.4,4.4-2.1,6.8-1.8,7.3c0.9,1.8,1.4,3,1.5,3.4
			C274.5,62.9,275,68.7,275.3,72.7z"/>
		<path class="st1" d="M333.1,123.8c-0.7-0.5-3.9-2.2-9.7-5c-5.4-2.6-9.4-5.2-12.1-7.8c1.7-0.3,3-0.4,3.8-0.5
			c0.8-0.1,1.2-0.2,1.2-0.5c0-0.4-1.4-1.2-4.2-2.4c-3.1-1.4-5-2.4-5.7-3c-1.1-1.1-1.8-1.6-1.9-1.6c-0.2,0-0.3,0.8-0.2,2.3
			c0.1,1.8,0,3.4-0.2,4.9c-0.2,1.4-0.3,2.1-0.3,2.2c0.2-0.2,0.4-0.3,0.7-0.3c0.6,0,2.3,1.5,5.1,4.6c3.3,3.7,6.4,6.3,9.2,7.9
			c4,2.1,7.9,4.2,11.8,6.3c2.2,1.2,3.7,2.9,4.5,5c0.3,0.7-1,2.1-4.1,4.2c-7.2,4.9-11.9,8-14,9.3c-9.2,6.1-15.6,9.2-19.2,9.2
			c-1.4,0-2.6-0.7-3.5-2c-1-1.4-1.4-3-1.4-4.8c0-2.3,0.4-5.2,1.3-8.7c0.8-3.5,1.3-5.4,1.3-5.7c0-0.4-0.1-0.6-0.3-0.6
			c-1.4,2.1-2.6,5.4-3.6,10.1c-0.8,3.6-1.2,6.2-1.2,7.8c0,3.4,0.6,6.1,1.9,8.3c1.3,2.4,3.1,3.5,5.4,3.5c3,0,6.9-1.5,11.8-4.5
			c2.2-1.4,6.7-4.5,13.5-9.5c2.2-1.4,4.4-2.8,6.6-4.2c2.9-1.9,4.8-3.4,5.7-4.7c1.8-2.4,2.6-5.5,2.6-9.1
			C337.7,129.7,336.2,126.2,333.1,123.8z"/>
		<path class="st1" d="M355.1,63.1c0.7,7.5,1.2,13.3,1.5,17.3c2.4,21.9,4.3,38.2,5.7,49.1c0.3,3.4,0.3,6.6-0.1,9.7
			c-0.3,2.4-0.2,3.7,0.2,3.7c0.3,0,0.7-0.5,1.3-1.6c1.5-2.8,2.2-7.3,2.2-13.7c0-1.8-0.1-3.6-0.2-5.5c-0.6-7.5-2-18.9-3.9-34.3
			c-1.6-12.9-2.4-20-2.3-21c1.1,1.1,2.1,2,3,2.7c0.3,0.2,0.6,0.3,0.7,0.3c0.2,0,0.3-0.2,0.3-0.5c0-1-0.9-3.4-2.7-7.3
			c-1.1-2.5-2.3-5-3.5-7.5c-0.7-1.6-1.2-2.5-1.6-2.5c-0.2,0-0.3,0.1-0.3,0.4c-1.4,4.4-2.1,6.8-1.8,7.3
			C354.5,61.6,355,62.7,355.1,63.1z"/>
		<path class="st1" d="M378.5,110.7c-3.7,2.7-7,4.8-10.2,6.4c0.2,1.7,0.3,3.2,0.4,4.6c0.1,0.8,0.1,1.7,0.2,2.5
			c2.6-1.5,5.4-3.3,8.3-5.5c6.6-5,11.2-9.4,13.8-13.1c1.7-3.4,2.5-7.3,2.3-11.6c-0.2-5.4-2-9.9-5.4-13.4c-2.6-2.7-4.9-4.1-6.9-4.1
			c-2.2,0-4.2,1.2-6.1,3.6c-2,2.6-3.1,5.6-3,9.1c0.1,4.2,2.3,6.2,6.6,6.2c0.5,0,1.6,0,3.5-0.1c2.4-0.1,4.5,0.3,6.5,1.3
			c1.6,0.9,2.6,1.7,2.8,2.6C390.1,101.4,385.9,105.2,378.5,110.7z M383,87.7c-1.1,0-2.3,0-3.5,0c-1.6-0.1-2.6-0.5-3-1.1
			c0.1-1.7,1.1-2.6,3-2.6c1.6,0,3.6,1.3,5.9,3.9C384.7,87.8,383.8,87.7,383,87.7z"/>
		<path class="st1" d="M352.6,128.9c2.3,0,4.7-0.4,7.3-1.2c-0.3-2.2-0.6-4.7-0.9-7.4c-1.4,0.3-2.7,0.5-4,0.5
			c-9.5,0-14.1-5.3-13.7-15.8c0.1-2,0.4-4.1,0.9-6.2c0.3-1.1,0.8-2.6,1.5-4.4c0.6-1.6,0.9-2.8,0.9-3.6c0-0.4-0.1-0.6-0.3-0.6
			c-0.6,0-1.4,1.2-2.3,3.7c-1.9,4.9-3,9.4-3.2,13.2c0,0.7-0.1,1.4-0.1,2c0,5.2,1,9.5,2.9,13.1C344,126.6,347.7,128.9,352.6,128.9z"
			/>
		<path class="st1" d="M407.2,118.2c-2.4-22.8-4.6-41.4-6.5-55.5c1.9,2.1,3,3.2,3,3.3c0.3,0.2,0.6,0.3,0.7,0.3
			c0.2,0,0.3-0.2,0.3-0.6c0-2.2-2-7-5.9-14.5c-0.7-1.8-1.2-2.6-1.6-2.6c-0.2,0-0.3,0.1-0.3,0.4c-1.2,3.8-1.8,6.2-1.8,7.3
			c0,0.5,0.1,1,0.3,1.3c0.6,0.8,1,1.4,1,1.6c0.3,6.4,0.8,12.1,1.5,17.3c3.8,29.6,5.8,46.2,5.8,49.7c0,0.5,0,0.8-0.1,0.9
			c-0.8,1.8-1.9,3-3.1,3.7c-1.5,0.9-3.9,1.4-7,1.4c-3.4,0-5.3-0.2-5.5-0.5c-1.6-2-2.9-3.7-3.8-4.9c-0.3-0.3-0.6-0.2-0.8,0.1
			c0,0.5-0.2,1.7-0.5,3.5c-0.3,1.8-0.5,3-0.5,3.6c0,0.4,0.1,0.6,0.2,0.8c3.9,5.8,5.8,9.8,5.8,11.9c0,0.3,0,0.7-0.1,1
			c-0.7,2.4-4.3,5.7-10.9,10c-7.9,5.2-15.6,7.8-22.9,7.8c-7.1,0-10.6-4.6-10.6-13.8c0-4.9,1.1-9.9,3.3-15c0.5-1.1,0.7-1.9,0.7-2.5
			c0-0.5-0.1-0.7-0.3-0.7c-0.5,0-1.2,0.8-2,2.4c-3,5.9-4.5,12.8-4.5,20.9c0,11.1,4.3,16.7,12.9,16.7c5.3,0,10.9-1.5,16.8-4.6
			c4.4-2.3,8.6-5.3,12.7-8.9c3.3-2.9,5.1-4.8,5.4-5.8c1.4-3.8,2.1-7.1,2.1-9.8c0-1.5-0.2-3.1-0.5-4.8c0.8,0.4,1.9,0.6,3.1,0.5
			c4,0,7.4-2,10.3-6C406.2,130.9,407.4,125.6,407.2,118.2z"/>
		<path class="st1" d="M423.8,125.8c-0.6-7.5-2-18.9-3.9-34.3c-1.6-12.9-2.4-20-2.3-21c1.1,1.1,2.1,2,3,2.7c0.3,0.2,0.6,0.3,0.7,0.3
			c0.2,0,0.3-0.2,0.3-0.5c0-1-0.9-3.4-2.7-7.3c-1.1-2.5-2.3-5-3.5-7.5c-0.7-1.6-1.2-2.5-1.6-2.5c-0.2,0-0.3,0.1-0.3,0.4
			c-1.4,4.4-2.1,6.8-1.8,7.3c0.9,1.8,1.4,3,1.5,3.4c0.7,7.5,1.2,13.3,1.5,17.3c2.4,21.9,4.3,38.2,5.7,49.1c0.3,3.4,0.3,6.6-0.1,9.7
			c-0.3,2.4-0.2,3.7,0.2,3.7c0.3,0,0.7-0.5,1.3-1.6c1.5-2.8,2.2-7.3,2.2-13.7C424.1,129.5,424,127.7,423.8,125.8z"/>
		<path class="st1" d="M51.7,138.4c6.7-4,12.4-8.8,17.3-14.5c4.8-5.7,7.1-10.4,7-14.2c1,8.6,2.5,14.4,4.5,17.4
			c0.9,1.4,2.2,2.4,3.7,3l0,0.3c0,0,49.3,22.8,112.1-1.7l0.1-0.3c0.6-0.1,1-0.2,1.1-0.3c-0.4,0.1-0.7,0.2-1.1,0.2l0,0
			c0.4-0.1,0.7-0.2,1.1-0.2c1-1,2.4-3.2,4.1-6.6c-0.1,1.8,0.2,3.3,1,4.5c1,1.4,2.6,2.7,4.7,3.8c1.4,0.7,2.7,1.2,3.7,1.3v0.1
			c0.2,0,0.3,0,0.4,0c0.1,0,0.2,0,0.3,0v0c3.4-0.2,6.5-1.8,9.1-4.8c0.8-0.8,2.2-3.1,4.4-6.8c1.5,2,3.9,3.9,7.3,5.5
			c2.9,1.4,5.1,2.1,6.5,2.1c1.3,0,2.4-0.9,3.4-2.8c0.9-1.8,1.3-3.6,1.3-5.5c0-3.8-0.6-7-1.7-9.5c-1.3-3-3.2-4.5-5.7-4.5
			c-3,0-5.9,2.5-8.4,7.4c-0.2-0.3-0.3-0.4-0.5-0.4c-0.4,0-1.6,1.5-3.7,4.4c-2.1,3.1-3.9,5-5.4,5.6c-2.2,0.9-4.4,1.4-6.8,1.4
			c-0.9-0.1-2.2-0.6-3.8-1.5c-1.7-1-2.8-2-3.3-2.7c-0.4-0.8-0.7-1.4-0.9-2c0.3-0.9,0.5-1.6,0.5-2.1c0-1.5-0.9-1-2.9,1.5
			c-0.2,0.2-0.6,1.1-1.4,2.6c-0.7,1.3-1.3,2.2-1.7,2.5c0,0-0.1,0-0.3,0c-8.1,2.8-15.9,4.8-23.3,6.3c-10.8,1.7-24.2,3.2-38.3,3.3
			c-20.6-0.6-35.7-5.1-43.6-7.1c-0.1,0-0.2,0-0.4-0.1c-0.9-0.2-1.6-0.4-2.2-0.6c-0.5-0.1-0.8-0.2-1.1-0.3c-0.2-0.1-0.3-0.1-0.3-0.1
			c-3.6,0-6.2-3.1-7.8-9.4c-0.8-3-1.7-10-2.9-21.1c-1.2-10.5-2.4-19.4-3.7-26.6c-2.7-14.9-4.6-22.4-5.8-22.4c-0.9,0-1.7,2.4-2.3,7.3
			c5.2,28.4,7.8,47,7.8,55.7c0,1.3-0.1,2.4-0.2,3.1c-0.6,3.7-5.8,9.2-15.4,16.3c-10.1,7.4-18.2,11.1-24.3,11.1
			c-10.9,0-16.4-5.6-16.4-16.8c0-5.1,0.9-9.8,2.8-14.1c0.4-1,0.6-1.8,0.6-2.3c0-0.4-0.1-0.6-0.3-0.6c-0.6,0-1.2,0.8-2,2.5
			c-2.9,6.1-4.3,12.1-4.3,18c0,6.3,1.6,11.5,4.7,15.5c3.2,4.1,7.5,6.2,12.9,6.2C37.7,145.1,44.3,142.9,51.7,138.4z M234.2,112.7
			c0.8,0,1.6,0.5,2.4,1.7c0.7,1.1,1.1,2.4,1.2,3.7c-1.7-0.2-3.1-0.7-4.4-1.6c-0.2-0.2-1.2-1-2.9-2.6
			C231.4,113.1,232.7,112.7,234.2,112.7z"/>
	</g>
	<g>
		<path class="st0" d="M458.4,148.8h33.9c-1.8,9.1-3,18.9-3.6,29.4C476.2,171.2,465.8,161.1,458.4,148.8z"/>
		<path class="st0" d="M493.3,82.5h20.4l-16.8,44.9c-0.6,1.6-2.2,2.7-3.9,2.7h-14.3c-2.9,0-5-2.9-3.9-5.7l14.7-39.2
			C490,83.6,491.6,82.5,493.3,82.5z"/>
		<path class="st0" d="M540.3,64.2l0.1-0.4h-59.2c-3.1,0-5.9,1.9-7,4.9l-23.5,62.8c-2.4-7.6-3.6-15.7-3.6-24.1
			c0-44.8,36.3-81.1,81.1-81.1c18,0,34.7,5.9,48.1,15.9C564.8,47.1,552.3,54.2,540.3,64.2z"/>
		<path class="st1" d="M303.6,53.4c-3.3,1-4.9,3.2-4.9,6.7c0.1,0.5,0.2,0.9,0.2,1.1c2,9.4,3,16.5,3,21.2v1.2l0.1,0.7h0.3
			c0.6-2.3,0.9-4.4,0.9-6.2c0-6.1-1-12.2-3.1-18.6c1.2-1.1,3.5-2.1,7-3c1.4,0,2.4-1.3,3-3.9c-0.1-0.2-0.2-0.3-0.2-0.4
			c-1.6-2.5-3.6-4.1-6.2-4.8H303c-1.8,0-2.9,2.2-3.3,6.6c0,0.2,0.1,0.3,0.3,0.3c1.3-1.6,2.2-2.4,2.5-2.4c1.1,0.3,1.7,0.7,1.8,1.1
			v0.1L303.6,53.4z"/>
		<path class="st1" d="M229,139.6l0.6,0.1c1.2-0.7,1.9-1.9,2.1-3.8c0-0.3,0-0.9,0-1.8c-0.7-1.7-1.4-2.6-2.1-2.7l-0.6-0.1
			c-0.9-0.1-1.8,0.7-2.8,2.3l-0.2-0.1l-0.3,0c-0.1,0-0.5,0.4-1.2,1.2c-1.1,1.7-2.1,2.9-3.1,3.7c-2.4,2.1-10,4.9-22.9,8.4l0,0.3
			c1.2,0,5.2-0.3,11.8-1c3.8-0.9,7.7-2.9,11.6-5.8c1.2-1.3,2.2-2.7,3-4.2C226.6,138.3,228,139.4,229,139.6z M228.9,134.4l0.1,0
			c0.8,0.1,1.3,0.8,1.6,2.2l-0.1,0.5c-0.5-0.1-1.5-0.8-2.8-2.1C228.1,134.5,228.5,134.3,228.9,134.4z"/>
		<path class="st1" d="M326.5,105.6h0.6c1.6,0,2.8-2.3,3.7-6.9l-0.2-0.3h-0.1c-1,2.2-2,3.3-2.9,3.3c-1.2,0-1.8-1.2-1.8-3.7
			c0-1.6,0.9-5.4,2.7-11.2h-0.3c-2.8,4.8-4.2,9.2-4.2,13v1.9c0,0.4,0,0.9,0.1,1.5C324.4,104.8,325.3,105.6,326.5,105.6z"/>
		<path class="st1" d="M98.2,48.1h0.5l0.9-0.7h0.6c1.2,1.4,2.6,4.4,4.2,9c0.3,2.7,0.7,4,1,4c0.5,0,1.3-1.4,2.3-4.2
			c1.5-8.9,3-13.4,4.5-13.4l0.9,0.3c1.4,1.4,2.1,2.1,2.3,2.1c0.5,0,1-1,1.4-3.1v-0.3c0-0.4-0.1-0.7-0.2-0.9
			c-1.2-2.1-2.3-3.1-3.3-3.1c-3,0-5.3,5.2-7,15.5h-0.2v-0.2c-1.9-8.7-4.7-13-8.5-13h-0.3c-0.7,0.5-1.6,1.9-2.8,4.3v0.3
			C95.8,47,97.1,48.1,98.2,48.1z"/>
		<path class="st1" d="M410.7,146h-0.9c-2.1,0-3.5,1.7-4.1,5.1c0,0.3,0.1,0.5,0.3,0.5c0.8-0.6,1.5-0.9,1.9-0.9h1.5
			c0.7,0.3,1,0.9,1,1.5v0.2c0,1.5-2.3,4.8-7,9.9v0.2l0.9-0.2c5.9-4.6,8.9-8.8,8.9-12.5v-1.2C413,146.9,412.1,146,410.7,146z"/>
		<path class="st1" d="M322,74.8h0.6c1.6,0,2.8-2.3,3.7-6.9l-0.2-0.3h-0.1c-1,2.2-2,3.3-2.9,3.3c-1.2,0-1.8-1.2-1.8-3.7
			c0-1.6,0.9-5.4,2.7-11.2h-0.3c-2.8,4.8-4.2,9.2-4.2,13v1.9c0,0.4,0,0.9,0.1,1.5C319.9,74,320.8,74.8,322,74.8z"/>
		<path class="st1" d="M78.4,141.4l-0.3-0.2h-0.2c-1.2,1.8-2.4,2.6-3.4,2.6c-1.5,0-2.2-1-2.2-3c0-1.3,1.1-4.3,3.3-9h-0.3
			c-3.4,3.9-5,7.4-5,10.5v1.5c0,0.3,0.1,0.7,0.2,1.3c0.6,1.3,1.5,1.9,2.9,1.9H74C75.9,146.9,77.4,145.1,78.4,141.4z"/>
		<path class="st1" d="M242.5,77.6v0.2l0.9-0.2c5.9-4.6,8.9-8.8,8.9-12.5v-1.2c-0.3-1.8-1.1-2.7-2.6-2.7h-0.9
			c-2.1,0-3.5,1.7-4.1,5.1c0,0.3,0.1,0.5,0.3,0.5c0.8-0.6,1.5-0.9,1.9-0.9h1.5c0.7,0.3,1,0.9,1,1.5v0.2
			C249.5,69.2,247.2,72.5,242.5,77.6z"/>
		<path class="st1" d="M196.8,57.8l-94.4,29c0,0-4,1-5.4,5.6c-1.4,4.6,6.1,6.5,6.1,6.5v-4c-2.3,0-4.4-2.6-4.4-2.6
			c6.8-4.3,96.6-30,96.6-30L196.8,57.8z"/>
		<path class="st1" d="M40.7,83.1c-0.1,1.6-14.2,9.4-14.2,9.4s11.7-2.5,13.6-4.2c2-1.7,8.3-9.8,6.8-11.3c-1.5-1.5-14.1-2.4-16.6-1.3
			c-2.5,1.1-4.5,4.9-4.7,6.1C25.6,81.7,40.8,81.5,40.7,83.1z"/>
		<path class="st1" d="M388,67.5l1.1-2.3c0,0,2.1-7.2-5.8-13.7l-2,3.6C381.3,55.1,388.8,57.8,388,67.5z"/>
		<g>
			<g>
				<path class="st1" d="M60.6,160c0,6-4.2,9.8-10,9.8c-5.8,0-9.6-4.1-9.6-9.5c0-5.8,4.1-9.9,9.9-9.9
					C56.8,150.5,60.6,154.5,60.6,160z M44.7,160.2c0,3.7,2.3,6.8,6,6.8c3.8,0,6-3,6-6.9c0-3.6-2.1-6.9-6-6.9
					C46.9,153.2,44.7,156.4,44.7,160.2z"/>
				<path class="st1" d="M69.2,151c1.3-0.2,3.2-0.4,5.8-0.4c2.7,0,4.6,0.6,5.8,1.6c1.1,0.9,1.9,2.4,1.9,4.2c0,1.7-0.6,3.2-1.7,4.2
					c-1.5,1.4-3.7,2-6.4,2c-0.7,0-1.4,0-2-0.2v7h-3.5V151z M72.8,159.7c0.5,0.1,1.2,0.2,2,0.2c2.8,0,4.5-1.2,4.5-3.5
					c0-2.2-1.7-3.1-4.2-3.1c-1.1,0-1.9,0.1-2.3,0.2V159.7z"/>
				<path class="st1" d="M86.7,167.6c0-1.3,0.9-2.2,2.2-2.2c1.3,0,2.2,0.9,2.2,2.2c0,1.3-0.9,2.2-2.2,2.2
					C87.6,169.8,86.7,168.8,86.7,167.6z"/>
				<path class="st1" d="M115.5,164.1l-1.8,5.4H110l6.6-18.7h4.6l6.8,18.7h-3.9l-1.9-5.4H115.5z M121.5,161.4l-1.7-4.7
					c-0.4-1.1-0.7-2.3-1-3.3h-0.1c-0.3,1-0.6,2.2-0.9,3.2l-1.7,4.7H121.5z"/>
				<path class="st1" d="M150.7,168.8c-0.9,0.4-2.9,1-5.5,1c-6.5,0-10.5-3.8-10.5-9.5c0-5.8,4.5-9.9,11-9.9c2.6,0,4.4,0.5,5.2,0.9
					l-0.8,2.8c-1-0.5-2.5-0.8-4.3-0.8c-4.4,0-7.4,2.6-7.4,6.8c0,3.8,2.6,6.7,7.3,6.7c1.6,0,3.3-0.3,4.4-0.8L150.7,168.8z"/>
				<path class="st1" d="M163.7,164.1l-1.8,5.4h-3.7l6.6-18.7h4.6l6.8,18.7h-3.9l-1.9-5.4H163.7z M169.7,161.4l-1.7-4.7
					c-0.4-1.1-0.7-2.3-1-3.3h-0.1c-0.3,1-0.6,2.2-0.9,3.2l-1.7,4.7H169.7z"/>
				<path class="st1" d="M184.5,151c1.7-0.3,3.9-0.4,6.2-0.4c3.9,0,6.6,0.8,8.5,2.4c1.9,1.5,3.1,3.7,3.1,6.6c0,3.1-1.2,5.6-3.1,7.3
					c-2.1,1.8-5.4,2.8-9.5,2.8c-2.3,0-4-0.1-5.2-0.3V151z M188.1,166.8c0.6,0.1,1.4,0.1,2.3,0.1c5.2,0,8.1-2.7,8.1-7.1
					c0-4.1-2.7-6.4-7.6-6.4c-1.3,0-2.2,0.1-2.8,0.2V166.8z"/>
				<path class="st1" d="M222.4,161.3h-7.9v5.3h8.8v2.9H211v-18.7h11.9v2.9h-8.4v4.7h7.9V161.3z"/>
				<path class="st1" d="M249.3,161.7c-0.1-2.5-0.2-5.5-0.2-8.2H249c-0.7,2.4-1.6,5-2.5,7.5l-3,8.2h-2.8l-2.7-8.2
					c-0.8-2.6-1.5-5.2-2.1-7.6h-0.1c-0.1,2.6-0.2,5.7-0.4,8.4l-0.4,7.6h-3.4l1.2-18.7h4.9l2.6,7.5c0.7,2.1,1.3,4.4,1.8,6.5h0.1
					c0.6-2,1.3-4.4,2.1-6.5l2.9-7.5h4.8l1.1,18.7h-3.5L249.3,161.7z"/>
				<path class="st1" d="M267.3,169.5v-7.9l-6.5-10.8h4.2l2.5,4.9c0.7,1.4,1.2,2.4,1.8,3.6h0.1c0.5-1.1,1.1-2.2,1.8-3.6l2.6-4.9h4.1
					l-6.9,10.7v8H267.3z"/>
			</g>
		</g>
	</g>
</g>
</svg>
